<?xml version="1.0" encoding="UTF-8" standalone="no"?>
<!-- Created with Keyshape -->
<svg xmlns="http://www.w3.org/2000/svg" id="DesqueLogo" shape-rendering="geometricPrecision" text-rendering="geometricPrecision" viewBox="0 0 1200 1000" style="white-space: pre;">
    <defs>
        <linearGradient id="Gradient-0" x1="-59.446" y1="-247.93" x2="-239.491" y2="345.36" gradientUnits="userSpaceOnUse">
            <stop offset="0" stop-color="#8233b8"/>
            <stop offset="0.5" stop-color="#5082d2"/>
            <stop offset="1" stop-color="#1dd1eb"/>
        </linearGradient>
        <linearGradient id="Gradient-1" x1="6.275" y1="-461.295" x2="555.955" y2="-37.535" gradientUnits="userSpaceOnUse">
            <stop offset="0" stop-color="#8233b8"/>
            <stop offset="0.5" stop-color="#5082d2"/>
            <stop offset="1" stop-color="#1dd1eb"/>
        </linearGradient>
        <mask id="Mask-1" style="mask-type: alpha;">
            <g id="DASH-MASK_1" visibility="visible" transform="translate(-1.925,0) translate(1.925,0)" style="animation: 3s linear infinite forwards DASH-MASK_1_v;">
                <g id="Group-1-5" opacity="1">
                    <path id="Path-1-7" fill="none" d="M341.775,-471.455C341.775,-471.455,143.175,-471.455,143.175,-471.455C143.175,-471.455,-345.625,471.705,-345.625,471.705C-345.625,471.705,-146.765,471.705,-146.765,471.705C-146.765,471.705,341.775,-471.455,341.775,-471.455Z" stroke="#ffffff" stroke-opacity="1" stroke-width="30" stroke-miterlimit="4" stroke-linecap="butt" stroke-linejoin="miter" stroke-dasharray="none" stroke-dashoffset="0"/>
                </g>
            </g>
        </mask>
        <mask id="Mask-2" style="mask-type: alpha;">
            <g id="DASH-MASK_2" visibility="hidden" transform="translate(-1.925,0) translate(1.925,0)" style="animation: 3s linear infinite forwards DASH-MASK_2_v;">
                <g id="Group-1-8" opacity="1">
                    <path id="Path-1-12" fill="none" d="M341.775,-471.455C341.775,-471.455,143.175,-471.455,143.175,-471.455C143.175,-471.455,-345.625,471.705,-345.625,471.705C-345.625,471.705,-146.765,471.705,-146.765,471.705C-146.765,471.705,341.775,-471.455,341.775,-471.455Z" stroke="#ffffff" stroke-opacity="1" stroke-width="30" stroke-miterlimit="4" stroke-linecap="butt" stroke-linejoin="miter" stroke-dasharray="none" stroke-dashoffset="0"/>
                </g>
            </g>
        </mask>
    </defs>
    <style>
@keyframes DASH_1-3_v { 0% { visibility: visible; animation-timing-function: steps(1); } 50% { visibility: hidden; animation-timing-function: steps(1); } 100% { visibility: hidden; animation-timing-function: steps(1); } }
@keyframes Path-1-3_do { 0% { stroke-dashoffset: 0px; } 50% { stroke-dashoffset: 2500px; } 100% { stroke-dashoffset: 2500px; } }
@keyframes LR_1_v { 0% { visibility: visible; animation-timing-function: steps(1); } 50% { visibility: hidden; animation-timing-function: steps(1); } 100% { visibility: hidden; animation-timing-function: steps(1); } }
@keyframes DASH-MASK_1_v { 0% { visibility: visible; animation-timing-function: steps(1); } 50% { visibility: hidden; animation-timing-function: steps(1); } 100% { visibility: hidden; animation-timing-function: steps(1); } }
@keyframes DASH_2_v { 0% { visibility: hidden; animation-timing-function: steps(1); } 50% { visibility: visible; animation-timing-function: steps(1); } 100% { visibility: hidden; animation-timing-function: steps(1); } }
@keyframes Path-1-8_do { 0% { stroke-dashoffset: -2521.94px; } 50% { stroke-dashoffset: -2521.94px; } 100% { stroke-dashoffset: -100.877px; } }
@keyframes LR_2_v { 0% { visibility: hidden; animation-timing-function: steps(1); } 50% { visibility: visible; animation-timing-function: steps(1); } 100% { visibility: hidden; animation-timing-function: steps(1); } }
@keyframes DASH-MASK_2_v { 0% { visibility: hidden; animation-timing-function: steps(1); } 50% { visibility: visible; animation-timing-function: steps(1); } 100% { visibility: hidden; animation-timing-function: steps(1); } }
    </style>
    <g id="DASH_1" transform="translate(598.075,500) translate(1.925,0)">
        <g id="L" transform="translate(-282.865,138.1) translate(282.865,-138.1)">
            <g id="Group-1" opacity="1">
                <path id="Path-1" fill="url(#Gradient-0)" d="M-359.255,139.665C-359.255,139.665,-0.005,271.535,-0.005,271.535C-0.005,271.535,-0.005,475.605,-0.005,475.605C-0.005,475.605,-565.725,234.095,-565.725,234.095C-565.725,234.095,-565.725,42.095,-565.725,42.095C-565.725,42.095,-0.005,-199.405,-0.005,-199.405C-0.005,-199.405,-0.005,7.805,-0.005,7.805C-0.005,7.805,-359.255,139.665,-359.255,139.665Z" fill-opacity="1" fill-rule="nonzero"/>
            </g>
        </g>
    </g>
    <g id="DASH_1-2" transform="translate(598.075,500) translate(1.925,0)">
        <g id="R" transform="translate(282.86,-123.17) translate(-282.86,123.17)">
            <g id="Group-1-2" opacity="1">
                <path id="Path-1-2" fill="url(#Gradient-1)" d="M565.725,-218.725C565.725,-218.725,565.725,-27.615,565.725,-27.615C565.725,-27.615,-0.005,213.905,-0.005,213.905C-0.005,213.905,-0.005,7.805,-0.005,7.805C-0.005,7.805,352.555,-121.605,352.555,-121.605C352.555,-121.605,-0.005,-251.015,-0.005,-251.015C-0.005,-251.015,-0.005,-460.245,-0.005,-460.245C-0.005,-460.245,565.725,-218.725,565.725,-218.725Z" fill-opacity="1" fill-rule="nonzero"/>
            </g>
        </g>
    </g>
    <g id="DASH_1-3" visibility="visible" transform="translate(598.075,500) translate(1.925,0)" style="animation: 3s linear infinite forwards DASH_1-3_v;">
        <g id="Group-1-3" opacity="1">
            <path id="Path-1-3" fill="none" d="M69.433,-329.167C69.433,-329.167,-345.625,471.705,-345.625,471.705C-345.625,471.705,-146.765,471.705,-146.765,471.705C-146.765,471.705,341.775,-471.455,341.775,-471.455C341.775,-471.455,143.175,-471.455,143.175,-471.455C143.175,-471.455,69.433,-329.167,69.433,-329.167Z" stroke="#ffffff" stroke-opacity="1" stroke-width="25" stroke-miterlimit="4" stroke-linecap="butt" stroke-linejoin="miter" stroke-dasharray="2521.94" stroke-dashoffset="0" fill-rule="nonzero" style="animation: 3s linear infinite both Path-1-3_do;"/>
        </g>
    </g>
    <g id="DASH_1-4" transform="translate(598.075,500) translate(1.925,0)">
        <g mask="url(#Mask-1)">
            <g id="LR_1" visibility="visible" transform="translate(0,7.68) translate(-600,-507.68)" style="animation: 3s linear infinite forwards LR_1_v;">
                <g id="Group-1-4" opacity="1" transform="translate(317.135,638.1) translate(282.865,-138.1)">
                    <path id="Path-1-4" fill="url(#Gradient-0)" d="M-252.335,178.912C-252.335,178.912,-166.195,210.532,-166.195,210.532C-166.195,210.532,-255.146,366.684,-255.146,366.684C-255.146,366.684,-323.496,337.504,-323.496,337.504C-323.496,337.504,-252.335,178.912,-252.335,178.912Z" fill-opacity="1" fill-rule="nonzero"/>
                </g>
                <g id="Group-2" opacity="1" transform="translate(882.86,376.83) translate(-282.86,123.17)">
                    <path id="Path-1-5" fill="url(#Gradient-1)" d="M71.994,-224.587C71.994,-224.587,-0.005,-251.015,-0.005,-251.015C-0.005,-251.015,65.25,-432.386,65.25,-432.386C65.25,-432.386,155.434,-393.885,155.434,-393.885C155.434,-393.885,71.994,-224.587,71.994,-224.587Z" fill-opacity="1" fill-rule="nonzero"/>
                </g>
                <g id="Group-3" opacity="1" transform="translate(882.86,376.83) translate(-282.86,123.17)">
                    <path id="Path-1-6" fill="url(#Gradient-1)" d="M52.317,191.568C52.317,191.568,-0.005,213.905,-0.005,213.905C-0.005,213.905,-0.005,112.766,-0.005,112.766C-0.005,112.766,61.219,-14.668,61.219,-14.668C61.219,-14.668,173.673,-55.945,173.673,-55.945C173.673,-55.945,52.317,191.568,52.317,191.568Z" fill-opacity="1" fill-rule="nonzero"/>
                </g>
            </g>
        </g>
    </g>
    <g id="DASH_2" visibility="hidden" transform="translate(598.075,500) translate(1.925,0)" style="animation: 3s linear infinite forwards DASH_2_v;">
        <g id="Group-1-6" opacity="1">
            <path id="Path-1-8" fill="none" d="M69.433,-329.167C69.433,-329.167,-345.625,471.705,-345.625,471.705C-345.625,471.705,-146.765,471.705,-146.765,471.705C-146.765,471.705,341.775,-471.455,341.775,-471.455C341.775,-471.455,143.175,-471.455,143.175,-471.455C143.175,-471.455,69.433,-329.167,69.433,-329.167Z" stroke="#ffffff" stroke-opacity="1" stroke-width="25" stroke-miterlimit="4" stroke-linecap="butt" stroke-linejoin="miter" stroke-dasharray="2521.94" stroke-dashoffset="-2521.94" style="animation: 3s linear infinite both Path-1-8_do;"/>
        </g>
    </g>
    <g id="DASH_2-2" transform="translate(598.075,500) translate(1.925,0)">
        <g mask="url(#Mask-2)">
            <g id="LR_2" visibility="hidden" transform="translate(0,7.68) translate(-600,-507.68)" style="animation: 3s linear infinite forwards LR_2_v;">
                <g id="Group-1-7" opacity="1" transform="translate(317.135,638.1) translate(282.865,-138.1)">
                    <path id="Path-1-9" fill="url(#Gradient-0)" d="M-252.335,178.912C-252.335,178.912,-166.195,210.532,-166.195,210.532C-166.195,210.532,-255.146,366.684,-255.146,366.684C-255.146,366.684,-323.496,337.504,-323.496,337.504C-323.496,337.504,-252.335,178.912,-252.335,178.912Z" fill-opacity="1" fill-rule="nonzero"/>
                </g>
                <g id="Group-2-2" opacity="1" transform="translate(882.86,376.83) translate(-282.86,123.17)">
                    <path id="Path-1-10" fill="url(#Gradient-1)" d="M71.994,-224.587C71.994,-224.587,-0.005,-251.015,-0.005,-251.015C-0.005,-251.015,65.25,-432.386,65.25,-432.386C65.25,-432.386,155.434,-393.885,155.434,-393.885C155.434,-393.885,71.994,-224.587,71.994,-224.587Z" fill-opacity="1" fill-rule="nonzero"/>
                </g>
                <g id="Group-3-2" opacity="1" transform="translate(882.86,376.83) translate(-282.86,123.17)">
                    <path id="Path-1-11" fill="url(#Gradient-1)" d="M52.317,191.568C52.317,191.568,-0.005,213.905,-0.005,213.905C-0.005,213.905,-0.005,112.766,-0.005,112.766C-0.005,112.766,61.219,-14.668,61.219,-14.668C61.219,-14.668,173.673,-55.945,173.673,-55.945C173.673,-55.945,52.317,191.568,52.317,191.568Z" fill-opacity="1" fill-rule="nonzero"/>
                </g>
            </g>
        </g>
    </g>
</svg>
